<?xml version="1.0" encoding="utf-8"?>
<!-- Generator: Adobe Illustrator 19.0.0, SVG Export Plug-In . SVG Version: 6.00 Build 0)  -->
<svg version="1.1" id="Layer_1" xmlns="http://www.w3.org/2000/svg" xmlns:xlink="http://www.w3.org/1999/xlink" x="0px" y="0px"
	 viewBox="0 0 75.4 17.6" style="enable-background:new 0 0 75.4 17.6;" xml:space="preserve">
<style type="text/css">
	.st0{fill:#FFFFFF;}
</style>
<g id="XMLID_1_">
	<path id="XMLID_17_" class="st0" d="M30.5,12.6c0.4,0,0.5-0.2,0.5-0.5V7.3c0-0.4-0.1-0.3,0.2-0.3h3.2h2.8l5.6,5.5
		c0.1,0.1,0.2,0.1,0.3,0.1c0.1,0,0.3-0.1,0.4-0.2c0.1-0.1,0.2-0.3,0.2-0.4c0-0.1,0-0.1-0.1-0.3l-4.8-4.7h1c1.5,0,2.6-0.7,3.2-2
		c0.3-0.5,0.4-1.2,0.5-1.9c-0.1-0.6-0.2-1.1-0.5-1.6C42.2,0.5,41.1,0,39.6,0c-4.8,0-7.6,0-8.7,0C30.2,0.1,30,0.4,30,1v11
		C30,12.4,30.1,12.6,30.5,12.6z M31,1.6c0-0.3-0.1-0.5,0.2-0.5h8.4c1.6,0,2.5,0.8,2.6,2.2c-0.1,1.8-1,2.8-2.6,2.8h-5.2h-3.2
		c-0.4,0-0.2-0.5-0.2-0.8V1.6z"/>
	<path id="XMLID_26_" class="st0" d="M74.8,9.6C74,8,72.6,7.1,70.7,7.1h-4.7c-1.5,0-2.6-0.4-3.2-1.5C62.5,5,62.3,4.6,62.3,4
		c0-0.5,0.2-0.9,0.4-1.3c0.6-0.8,1.6-1.3,3.3-1.4l8.9,0c0.6-0.1,0.5-0.3,0.5-0.8c0-0.4-0.2-0.5-0.5-0.5H66c-2,0-3.4,0.5-4.2,1.9
		c-0.3,0.6-0.5,1.1-0.6,1.9c0,1.1,0.2,1.7,0.6,2.3C62.7,7.6,64,8.1,66,8.1h4.7c1,0,1.8,0.6,2.4,1.1c0.7,0.6,1.2,1.7,1.2,3
		c-0.1,1.7-1.4,2.9-3.7,2.9l-22.2,0c-0.2-0.7-0.5-1.3-1.5-1.5v-1.3c0,0,0,0,0,0V1.6c0-0.1,0-0.2,0.1-0.2c0.1,0,0.2,0.1,0.4,0.2
		L50.1,4c1.5,1.4,2.4,2,2.6,2h0c0.2,0,1.1-0.6,2.6-2c0.6-0.6,1.5-1.3,2.6-2.5c0.2-0.1,0-0.2,0.1-0.2c0.1,0,0.8,0.1-0.2,0.3v10.5
		c0,0.3,0.6,0.5,1,0.5c0.4,0,1-0.2,1-0.5V1c0-0.6-0.6-1-1.3-1c-0.3,0-0.8,0.1-1.1,0.5c-0.3,0.3-1.9,1.9-4.8,4.7L48,0.5
		C47.7,0.2,47.4,0,47,0C46.3,0.1,46,0.4,46,1v10l0,0v2.4c-1,0.2-1.3,0.8-1.5,1.5l-13.1,0c-0.2-0.9-1.1-1.6-2-1.6
		c-0.1,0-0.2,0.2-0.3,0.2l-2.3-3.5h0l-6-9.7c-0.1-0.2-0.3-0.3-0.5-0.3c-0.2,0-0.4,0-0.5,0.2l-7.3,11.5c-0.1,0.1-0.1,0.2-0.1,0.2
		c0,0.2,0.1,0.3,0.3,0.5c0.1,0.1,0.2,0.1,0.3,0.1c0.2,0,0.3,0,0.4-0.2l3.5-5.4h6.8l2.3,3.4v-0.1l2.2,3.4c-0.4,0.3-0.7,0.7-0.8,1.1
		L6.4,15c-1.6,0-3-0.9-3.9-2.2c-0.8-1.2-1.5-2.9-1.4-4.9c0.1-1.3,0.3-2.6,0.6-3.5c0.9-2.2,2.5-3.3,4.7-3.3h6.7
		c0.3,0,0.7,0.1,0.6-0.5c0-0.5-0.3-0.5-0.6-0.5H6.3c-2.6,0-4.5,1.3-5.6,4C0.3,5.1,0.1,6.5,0,8c0,1.5,0.2,2.9,0.8,4
		c1.1,2.7,2.9,4,5.6,4l20.9,0c0.2,0.9,1,1.6,2,1.6c1,0,1.8-0.7,2-1.6l13,0c0.2,0.9,1,1.6,2,1.6c1,0,1.8-0.7,2-1.6l22.2,0
		c2,0,3.4-0.6,4.2-1.9c0.3-0.6,0.6-1.2,0.6-2C75.4,11.2,75.2,10.2,74.8,9.6z M17.5,6.1l2.8-4.4L23,6.1H17.5z"/>
</g>
</svg>
